<mxfile host="app.diagrams.net" modified="2021-11-16T15:06:10.448Z" agent="5.0 (Windows NT 10.0; Win64; x64) AppleWebKit/537.36 (KHTML, like Gecko) Chrome/95.0.4638.69 Safari/537.36" etag="IMYgbQNRM63Q9rw5FEdt" version="15.7.4" type="github">
  <diagram id="mlbPUXofwY8Xd3mVZGB-" name="Page-1">
    <mxGraphModel dx="862" dy="482" grid="1" gridSize="10" guides="1" tooltips="1" connect="1" arrows="1" fold="1" page="1" pageScale="1" pageWidth="827" pageHeight="1169" math="0" shadow="0">
      <root>
        <mxCell id="0" />
        <mxCell id="1" parent="0" />
        <mxCell id="ub2I3HWMUhCSUbHB9KC--1" value="PLAYER" style="shape=umlActor;verticalLabelPosition=bottom;verticalAlign=top;html=1;outlineConnect=0;" vertex="1" parent="1">
          <mxGeometry x="100" y="370" width="30" height="80" as="geometry" />
        </mxCell>
        <mxCell id="ub2I3HWMUhCSUbHB9KC--2" value="SYSTEM" style="shape=umlActor;verticalLabelPosition=bottom;verticalAlign=top;html=1;outlineConnect=0;" vertex="1" parent="1">
          <mxGeometry x="720" y="380" width="30" height="70" as="geometry" />
        </mxCell>
        <mxCell id="ub2I3HWMUhCSUbHB9KC--4" value="DISPLAY CORRECT ANSWER" style="ellipse;whiteSpace=wrap;html=1;" vertex="1" parent="1">
          <mxGeometry x="370" y="690" width="120" height="80" as="geometry" />
        </mxCell>
        <mxCell id="ub2I3HWMUhCSUbHB9KC--5" value="SELECT ANY OPTION" style="ellipse;whiteSpace=wrap;html=1;" vertex="1" parent="1">
          <mxGeometry x="380" y="80" width="120" height="80" as="geometry" />
        </mxCell>
        <mxCell id="ub2I3HWMUhCSUbHB9KC--6" value="&amp;nbsp;INITIALS FOR HERO,HEROINE,SONG &amp;amp; MOVIE" style="ellipse;whiteSpace=wrap;html=1;" vertex="1" parent="1">
          <mxGeometry x="370" y="180" width="140" height="90" as="geometry" />
        </mxCell>
        <mxCell id="ub2I3HWMUhCSUbHB9KC--7" value="GUESS" style="ellipse;whiteSpace=wrap;html=1;" vertex="1" parent="1">
          <mxGeometry x="380" y="280" width="120" height="80" as="geometry" />
        </mxCell>
        <mxCell id="ub2I3HWMUhCSUbHB9KC--8" value="" style="endArrow=none;html=1;rounded=0;entryX=0;entryY=0.5;entryDx=0;entryDy=0;exitX=0.008;exitY=0.663;exitDx=0;exitDy=0;exitPerimeter=0;" edge="1" parent="1" source="ub2I3HWMUhCSUbHB9KC--6" target="ub2I3HWMUhCSUbHB9KC--5">
          <mxGeometry width="50" height="50" relative="1" as="geometry">
            <mxPoint x="390" y="520" as="sourcePoint" />
            <mxPoint x="440" y="470" as="targetPoint" />
            <Array as="points">
              <mxPoint x="130" y="410" />
            </Array>
          </mxGeometry>
        </mxCell>
        <mxCell id="ub2I3HWMUhCSUbHB9KC--9" value="" style="endArrow=none;html=1;rounded=0;entryX=0.025;entryY=0.4;entryDx=0;entryDy=0;entryPerimeter=0;exitX=0;exitY=0.4;exitDx=0;exitDy=0;exitPerimeter=0;" edge="1" parent="1" source="ub2I3HWMUhCSUbHB9KC--12" target="ub2I3HWMUhCSUbHB9KC--7">
          <mxGeometry width="50" height="50" relative="1" as="geometry">
            <mxPoint x="300" y="760" as="sourcePoint" />
            <mxPoint x="440" y="470" as="targetPoint" />
            <Array as="points">
              <mxPoint x="130" y="410" />
            </Array>
          </mxGeometry>
        </mxCell>
        <mxCell id="ub2I3HWMUhCSUbHB9KC--10" value="INCORRECT&amp;nbsp; REDUCE THE CHANCES" style="ellipse;whiteSpace=wrap;html=1;" vertex="1" parent="1">
          <mxGeometry x="370" y="390" width="120" height="80" as="geometry" />
        </mxCell>
        <mxCell id="ub2I3HWMUhCSUbHB9KC--11" value="" style="endArrow=none;html=1;rounded=0;entryX=1;entryY=0.5;entryDx=0;entryDy=0;exitX=1;exitY=0.5;exitDx=0;exitDy=0;" edge="1" parent="1" source="ub2I3HWMUhCSUbHB9KC--10" target="ub2I3HWMUhCSUbHB9KC--6">
          <mxGeometry width="50" height="50" relative="1" as="geometry">
            <mxPoint x="390" y="520" as="sourcePoint" />
            <mxPoint x="440" y="470" as="targetPoint" />
            <Array as="points">
              <mxPoint x="710" y="420" />
            </Array>
          </mxGeometry>
        </mxCell>
        <mxCell id="ub2I3HWMUhCSUbHB9KC--12" value="HINT" style="ellipse;whiteSpace=wrap;html=1;" vertex="1" parent="1">
          <mxGeometry x="370" y="490" width="120" height="80" as="geometry" />
        </mxCell>
        <mxCell id="ub2I3HWMUhCSUbHB9KC--13" value="" style="endArrow=none;html=1;rounded=0;exitX=0;exitY=0.5;exitDx=0;exitDy=0;" edge="1" parent="1" source="ub2I3HWMUhCSUbHB9KC--10">
          <mxGeometry width="50" height="50" relative="1" as="geometry">
            <mxPoint x="80" y="460" as="sourcePoint" />
            <mxPoint x="130" y="410" as="targetPoint" />
          </mxGeometry>
        </mxCell>
        <mxCell id="ub2I3HWMUhCSUbHB9KC--14" value="" style="endArrow=none;html=1;rounded=0;exitX=1;exitY=0.5;exitDx=0;exitDy=0;" edge="1" parent="1" source="ub2I3HWMUhCSUbHB9KC--12">
          <mxGeometry width="50" height="50" relative="1" as="geometry">
            <mxPoint x="474" y="730" as="sourcePoint" />
            <mxPoint x="710" y="420" as="targetPoint" />
          </mxGeometry>
        </mxCell>
        <mxCell id="ub2I3HWMUhCSUbHB9KC--15" value="IF CORRECT BRAVO!" style="ellipse;whiteSpace=wrap;html=1;" vertex="1" parent="1">
          <mxGeometry x="370" y="590" width="120" height="80" as="geometry" />
        </mxCell>
        <mxCell id="ub2I3HWMUhCSUbHB9KC--16" value="" style="endArrow=none;html=1;rounded=0;entryX=0;entryY=0.5;entryDx=0;entryDy=0;" edge="1" parent="1" target="ub2I3HWMUhCSUbHB9KC--15">
          <mxGeometry width="50" height="50" relative="1" as="geometry">
            <mxPoint x="130" y="410" as="sourcePoint" />
            <mxPoint x="440" y="600" as="targetPoint" />
          </mxGeometry>
        </mxCell>
        <mxCell id="ub2I3HWMUhCSUbHB9KC--17" value="" style="endArrow=none;html=1;rounded=0;exitX=0.975;exitY=0.388;exitDx=0;exitDy=0;exitPerimeter=0;" edge="1" parent="1" source="ub2I3HWMUhCSUbHB9KC--15">
          <mxGeometry width="50" height="50" relative="1" as="geometry">
            <mxPoint x="390" y="650" as="sourcePoint" />
            <mxPoint x="710" y="420" as="targetPoint" />
            <Array as="points" />
          </mxGeometry>
        </mxCell>
        <mxCell id="ub2I3HWMUhCSUbHB9KC--18" value="" style="endArrow=none;html=1;rounded=0;" edge="1" parent="1" source="ub2I3HWMUhCSUbHB9KC--4">
          <mxGeometry width="50" height="50" relative="1" as="geometry">
            <mxPoint x="390" y="500" as="sourcePoint" />
            <mxPoint x="710" y="420" as="targetPoint" />
          </mxGeometry>
        </mxCell>
      </root>
    </mxGraphModel>
  </diagram>
</mxfile>
